<?xml version="1.0" encoding="utf-8"?>
<!-- Generator: Adobe Illustrator 17.0.0, SVG Export Plug-In . SVG Version: 6.00 Build 0)  -->
<!DOCTYPE svg PUBLIC "-//W3C//DTD SVG 1.1//EN" "http://www.w3.org/Graphics/SVG/1.1/DTD/svg11.dtd">
<svg version="1.1" id="Group_1_1_" xmlns="http://www.w3.org/2000/svg" xmlns:xlink="http://www.w3.org/1999/xlink" x="0px" y="0px"
	 width="470.0519714px" height="449.7091064px" viewBox="0 0 470.0519714 449.7091064"
	 enable-background="new 0 0 470.0519714 449.7091064" xml:space="preserve">
<g id="Shape_1" opacity="0.8">
	<g>
		<path fill-rule="evenodd" clip-rule="evenodd" fill="#2C81F4" d="M299.2875977,89.0848465
			c0,0-26.4117432,2.3414307-30.2875977,47.9740067c0,0-1.5627441,11.0112915-3.1053467,14.1566772
			c0,0-5.4385986,39.3339844-10.8787842,38.5535278c0,0-20.9576416-5.510376-26.3962402-22.0319824
			c0,0-6.9812622-26.7382202-9.31604-27.5265503c0,0-3.1192627-8.6619873-3.1192627-16.521553
			c0,0-3.8759155-27.5328369-5.4246826-30.6782227c0,0-6.9967651-36.9769287-9.331543-39.3324585
			c0,0-3.0899048-6.2907715-3.8743896-15.7269897c0,0-10.1020508-39.3167114-21.7513428-37.7557983
			c0,0-23.2924805-4.7219849-12.4353027,32.2470093l4.6680298,12.5957642c0,0,4.6619263,13.3604736,3.8759155,19.6513062
			c0,0,0,23.6069336,2.3502808,30.6860352c0,0,2.3193359,29.1016235,3.8759155,34.6041336
			c0,0,2.3192749,11.019104-3.8759155,13.3762207c0,0-2.3502808,7.0790405-6.9967041-11.8074341
			c0,0-8.5440063-36.9611893-11.649353-37.7573318c0,0-13.1903687-43.2583008-17.8599854-44.0465698
			c0,0-11.6416016-31.4587402-13.9763794-32.2470703c0,0-6.9967041-20.4474487-26.4117432-13.3777466
			c0,0-10.8648682,13.3777466,2.3255005,33.0368652c0,0,10.1098633,28.3133545,10.1098633,32.2627563
			c0,0,8.5361938,32.2470093,10.8709717,36.1869507c0,0,10.0866089,48.7545242,13.2058716,52.6945267
			c0,0-1.5565186,13.3620605-10.1004639-4.720459c0,0-10.8726196-22.8123779-18.6305542-30.6861038
			c0,0-13.2059326-25.9420776-15.5561523-27.5187378c0,0-3.0899048-11.019043-6.2106934-17.3098755
			c0,0-7.7502441-36.9689941-23.2754478-33.0274658c0,0-18.6460571,0.7804565-8.5455322,29.0859375
			c0,0,6.9812622,22.0319214,10.8787842,27.5422363c0,0,12.4213829,44.038765,17.8522911,48.7685623
			c0,0,23.3001709,44.8427734,22.5219116,47.1998901c0,0-7.765686,16.5058594-17.8677368,1.5687256
			c0,0-9.3145142-8.6541138-15.5407104-12.5957031c0,0-17.8445396-14.9449463-22.5064659-21.2357178
			c0,0-10.085022-9.4503174-13.9840698-18.0825806c0,0-17.8522949-27.524971-27.9528198-18.8707886
			c0,0-18.6305542,10.2166748,16.3112183,48.7529297c0,0,20.9730835,25.1773071,24.8551636,29.883606
			c0,0,30.2736778,33.0432129,31.836422,37.7714844c0,0,33.3945313,59.7814178,33.3945313,64.4955902
			c0,0,19.401062,25.7728882,38.8161011,39.1647339c0,0,25.6876221,16.7974243,59.0279541,0l24.4250488-5.3113403
			c0,0,33.8091431-14.9684448,39.2477417-36.2026367c0,0,24.8567505-59.0009613,24.8567505-103.0475311
			c0,0,4.6603394-44.8442993,7.7502441-52.710144c0,0,8.5455322-38.5378494,6.2261963-42.4637527
			C311.7090454,108.7517776,318.7042236,86.7215042,299.2875977,89.0848465z"/>
	</g>
</g>
<g id="Shape_2" opacity="0.9019608">
	<g>
		<path fill-rule="evenodd" clip-rule="evenodd" fill="#ED8528" d="M465.0010986,222.6330719
			c-10.4371948-8.6383667-28.8845825,18.8328857-28.8845825,18.8328857
			c-4.0290527,8.6148071-14.4502563,18.0460663-14.4502563,18.0460663
			c-4.8173218,6.2781372-23.2566528,21.1930542-23.2566528,21.1930542
			c-6.4337158,3.9320679-16.0587158,12.5703735-16.0587158,12.5703735
			c-10.4371948,14.9071045-18.4633179-1.5656128-18.4633179-1.5656128
			c-0.8042603-2.352356,23.272644-47.1048431,23.272644-47.1048431
			c5.6118774-4.7203369,18.4473267-48.6704712,18.4473267-48.6704712
			c4.0275269-5.4992676,11.241394-27.4868164,11.241394-27.4868164
			c10.4372559-28.2485352-8.8287354-29.0274048-8.8287354-29.0274048
			c-16.0443115-3.9336548-24.0528564,32.9609985-24.0528564,32.9609985
			c-3.2248535,6.2781372-6.4177246,17.2750244-6.4177246,17.2750244c-2.4286499,1.5734863-16.074707,27.461853-16.074707,27.461853
			c-8.0165405,7.859436-19.2515869,30.6258545-19.2515869,30.6258545
			c-8.8287354,18.0461273-10.4371338,4.7109985-10.4371338,4.7109985
			c3.2247925-3.9320679,13.6459961-52.5884399,13.6459961-52.5884399
			c2.4126587-3.9320679,11.2334595-36.1157837,11.2334595-36.1157837c0-3.9398804,10.4467773-32.1977539,10.4467773-32.1977539
			c13.6300659-19.6180496,2.4046631-32.9688797,2.4046631-32.9688797
			c-20.0637817-7.055481-27.2937622,13.3508301-27.2937622,13.3508301
			c-2.4125977,0.7851563-14.4422607,32.1821365-14.4422607,32.1821365
			c-4.8253174,0.7867432-18.4553833,43.9579468-18.4553833,43.9579468
			c-3.2088013,0.7945557-12.0375977,37.6813965-12.0375977,37.6813965
			c-4.8013306,18.8485107-7.2299194,11.7836304-7.2299194,11.7836304c-6.4017334-2.352356-4.005127-13.3493042-4.005127-13.3493042
			c1.6084595-5.491394,4.005127-34.5344849,4.005127-34.5344849c2.4285889-7.0648193,2.4285889-30.6243286,2.4285889-30.6243286
			c-0.8121948-6.2780762,4.005127-19.6116943,4.005127-19.6116943l4.8236694-12.5704422
			c11.2190552-36.8945923-12.8498535-32.1836548-12.8498535-32.1836548
			c-12.0375977-1.5578003-22.4747925,37.6814041-22.4747925,37.6814041
			c-0.8122559,9.4171753-4.005127,15.6937866-4.005127,15.6937866c-2.4125977,2.352356-9.6425781,39.2548218-9.6425781,39.2548218
			c-1.6004028,3.1390381-5.6038818,30.6165161-5.6038818,30.6165161c0,7.84375-3.2248535,16.4883423-3.2248535,16.4883423
			c-2.4126587,0.7866821-9.6265869,27.4711761-9.6265869,27.4711761
			c-5.619873,16.4883423-27.276123,21.9859619-27.276123,21.9859619
			c-5.621521,0.7789307-11.2414551-38.4742889-11.2414551-38.4742889
			c-1.5924072-3.1390991-3.2088013-14.1282349-3.2088013-14.1282349
			c-4.0050659-45.5407715-31.2972412-47.8774414-31.2972412-47.8774414
			c-20.0637817-2.3601685-12.8354492,19.6273804-12.8354492,19.6273804
			c-2.3966675,3.9179688,6.4337158,42.3782959,6.4337158,42.3782959c3.1929321,7.8500366,8.0101929,52.6040497,8.0101929,52.6040497
			c0,43.9579468,25.6837158,102.84021,25.6837158,102.84021c5.62146,21.1914673,40.5560303,36.1298218,40.5560303,36.1298218
			l25.2391968,5.3005981c34.4517212,16.7636108,60.9955444,0,60.9955444,0
			c20.0637817-13.3648682,40.1115723-39.0858765,40.1115723-39.0858765c0-4.7047119,34.5061035-64.3658447,34.5061035-64.3658447
			c1.6148071-4.718811,32.897583-37.6954956,32.897583-37.6954956c4.0131226-4.6968384,25.6837158-29.8234863,25.6837158-29.8234863
			C484.2526855,232.8275909,465.0010986,222.6330719,465.0010986,222.6330719z"/>
	</g>
</g>
</svg>
